# xmcd
#
# Track frame offsets:
# 150
# 22725
# 41562
# 59952
# 81797
# 101810
# 123692
# 142495
# 161434
# 182480
# 208425
# 226932
# 248020
# 269287
# 293812
#
# Disc length: 4229 seconds
#
#
# Revision: 5
# Processed by: cddbd v1.5.2PL0 Copyright (c) Steve Scherf et al.
# Submitted via: FreeRIP 2.95 
#
DISCID=e210830f
DTITLE=Celine Dion - Let's Talk About Love
DYEAR=1997
DGENRE=Pop
TTITLE0=The Reason
TTITLE1=Immortality
TTITLE2=Treat Her Like A Lady
TTITLE3=Why Oh Why
TTITLE4=Love Is On The Way
TTITLE5=Tell Him
TTITLE6=Amar Haciendo El Amor
TTITLE7=When I Need You
TTITLE8=Miles To Go (Before I Sleep)
TTITLE9=Us
TTITLE10=Just A Little Bit Of Love
TTITLE11=My Heart Will Go On
TTITLE12=I Hate You Then I Love You
TTITLE13=To Love You More
TTITLE14=Let's Talk About Love
EXTD=YEAR: 1997
EXTT0=
EXTT1=
EXTT2=
EXTT3=
EXTT4=
EXTT5=
EXTT6=
EXTT7=
EXTT8=
EXTT9=
EXTT10=
EXTT11=
EXTT12=
EXTT13=
EXTT14=
PLAYORDER=
